<?xml version="1.0" standalone="no"?><!DOCTYPE svg PUBLIC "-//W3C//DTD SVG 1.1//EN" "http://www.w3.org/Graphics/SVG/1.1/DTD/svg11.dtd"><svg t="1561358703027" class="icon" viewBox="0 0 1024 1024" version="1.1" xmlns="http://www.w3.org/2000/svg" p-id="2424" xmlns:xlink="http://www.w3.org/1999/xlink" width="64" height="64"><defs><style type="text/css"></style></defs><path d="M416 128H256c-70.4 0-128 57.6-128 128v160c0 19.2 12.8 32 32 32h256c19.2 0 32-12.8 32-32v-256c0-19.2-12.8-32-32-32zM384 384H192V256c0-38.4 25.6-64 64-64h128v192zM544 448h256c19.2 0 32-12.8 32-32V256c0-70.4-57.6-128-128-128H544c-19.2 0-32 12.8-32 32v256c0 19.2 12.8 32 32 32zM576 192h128c38.4 0 64 25.6 64 64v128H576V192zM416 512h-256c-19.2 0-32 12.8-32 32V704c0 70.4 57.6 128 128 128h160c19.2 0 32-12.8 32-32v-256c0-19.2-12.8-32-32-32zM384 768H256c-38.4 0-64-25.6-64-64V576h192v192zM889.6 838.4l-83.2-83.2c19.2-25.6 25.6-57.6 25.6-89.6C832 582.4 761.6 512 672 512S512 582.4 512 672 582.4 832 672 832c32 0 64-12.8 89.6-25.6l83.2 83.2c6.4 6.4 12.8 6.4 25.6 6.4s19.2 0 25.6-6.4c0-12.8 0-38.4-6.4-51.2zM576 672c0-51.2 44.8-96 96-96s96 44.8 96 96-44.8 96-96 96S576 723.2 576 672z" p-id="2425" fill="#888888"></path></svg>