<?xml version="1.0" standalone="no"?><!DOCTYPE svg PUBLIC "-//W3C//DTD SVG 1.1//EN" "http://www.w3.org/Graphics/SVG/1.1/DTD/svg11.dtd"><svg t="1561358698699" class="icon" viewBox="0 0 1024 1024" version="1.1" xmlns="http://www.w3.org/2000/svg" p-id="2219" xmlns:xlink="http://www.w3.org/1999/xlink" width="64" height="64"><defs><style type="text/css"></style></defs><path d="M416 128h-160c-70.4 0-128 57.6-128 128v160c0 19.2 12.8 32 32 32h256c19.2 0 32-12.8 32-32v-256c0-19.2-12.8-32-32-32zM544 448h256c19.2 0 32-12.8 32-32V256c0-70.4-57.6-128-128-128h-160c-19.2 0-32 12.8-32 32v256c0 19.2 12.8 32 32 32zM416 512h-256c-19.2 0-32 12.8-32 32v160c0 70.4 57.6 128 128 128h160c19.2 0 32-12.8 32-32v-256c0-19.2-12.8-32-32-32zM889.6 838.4l-83.2-83.2c19.2-25.6 25.6-57.6 25.6-89.6 0-89.6-70.4-160-160-160s-160 70.4-160 160 70.4 160 160 160c32 0 64-12.8 89.6-25.6l83.2 83.2c6.4 6.4 12.8 6.4 25.6 6.4s19.2 0 25.6-6.4c0-6.4 0-32-6.4-44.8z m-313.6-166.4c0-51.2 44.8-96 96-96s96 44.8 96 96-44.8 96-96 96-96-44.8-96-96z" p-id="2220" fill="#8000ff"></path></svg>