<?xml version="1.0" standalone="no"?><!DOCTYPE svg PUBLIC "-//W3C//DTD SVG 1.1//EN" "http://www.w3.org/Graphics/SVG/1.1/DTD/svg11.dtd"><svg t="1561358742565" class="icon" viewBox="0 0 1024 1024" version="1.1" xmlns="http://www.w3.org/2000/svg" p-id="2979" xmlns:xlink="http://www.w3.org/1999/xlink" width="64" height="64"><defs><style type="text/css"></style></defs><path d="M723.2 262.4c-12.8-12.8-25.6-12.8-38.4 0-12.8 6.4-19.2 25.6-12.8 38.4 6.4 19.2 6.4 57.6 0 102.4-12.8-38.4-32-70.4-76.8-108.8-51.2-44.8-51.2-134.4-51.2-134.4 0-12.8-6.4-25.6-19.2-32-6.4 0-19.2 0-32 6.4-179.2 115.2-185.6 198.4-185.6 262.4-12.8-12.8-25.6-19.2-32-25.6-6.4-12.8-19.2-12.8-32-6.4s-19.2 19.2-19.2 25.6c0 6.4-6.4 19.2-12.8 32-19.2 38.4-51.2 108.8-51.2 217.6 0 134.4 153.6 288 352 288s352-153.6 352-288c0-153.6-51.2-300.8-140.8-377.6zM512 864c-160 0-288-121.6-288-224 0-96 25.6-153.6 44.8-192 12.8 12.8 19.2 25.6 19.2 32 0 12.8 6.4 25.6 19.2 32 12.8 0 25.6 0 38.4-12.8 25.6-32 25.6-64 25.6-96 0-51.2 0-102.4 115.2-185.6 6.4 38.4 25.6 89.6 70.4 128 57.6 51.2 70.4 102.4 76.8 153.6l6.4 19.2c0 6.4 6.4 19.2 19.2 19.2 6.4 6.4 19.2 6.4 25.6 0 12.8-6.4 19.2-19.2 32-38.4 6.4-19.2 19.2-64 25.6-115.2 38.4 70.4 57.6 160 57.6 249.6 0 108.8-128 230.4-288 230.4z" p-id="2980" fill="#888888"></path><path d="M569.6 569.6c-25.6-19.2-44.8-38.4-57.6-70.4-6.4-6.4-12.8-19.2-25.6-19.2s-19.2 0-25.6 6.4c-57.6 51.2-128 166.4-102.4 243.2 12.8 64 70.4 102.4 153.6 102.4 38.4 0 89.6-25.6 115.2-64 25.6-32 25.6-70.4 12.8-108.8-19.2-38.4-44.8-64-70.4-89.6z m0 160c-12.8 25.6-38.4 38.4-57.6 38.4-25.6 0-83.2-6.4-96-51.2-6.4-32 19.2-102.4 57.6-147.2 19.2 19.2 32 38.4 51.2 51.2 19.2 19.2 44.8 38.4 51.2 64 6.4 12.8 6.4 32-6.4 44.8z" p-id="2981" fill="#888888"></path></svg>