<?xml version="1.0" standalone="no"?><!DOCTYPE svg PUBLIC "-//W3C//DTD SVG 1.1//EN" "http://www.w3.org/Graphics/SVG/1.1/DTD/svg11.dtd"><svg t="1561358670458" class="icon" viewBox="0 0 1024 1024" version="1.1" xmlns="http://www.w3.org/2000/svg" p-id="1809" xmlns:xlink="http://www.w3.org/1999/xlink" width="64" height="64"><defs><style type="text/css"></style></defs><path d="M684.8 832H576v-192c0-38.4-25.6-64-64-64s-64 25.6-64 64v192H339.2c-44.8 0-83.2-38.4-83.2-83.2V531.2l-89.6-32c-19.2-6.4-32-25.6-38.4-51.2-6.4-25.6 6.4-44.8 25.6-57.6L448 153.6c38.4-32 96-32 134.4 0l294.4 236.8c12.8 12.8 25.6 32 19.2 57.6s-19.2 44.8-38.4 51.2l-89.6 32v211.2c0 51.2-38.4 89.6-83.2 89.6z m-44.8-64h44.8c12.8 0 19.2-6.4 19.2-19.2v-256l128-51.2-294.4-236.8c-12.8-12.8-38.4-12.8-51.2 0L192 435.2l128 51.2v256c0 19.2 6.4 25.6 19.2 25.6H384v-128c0-70.4 57.6-128 128-128s128 57.6 128 128v128z" p-id="1810" fill="#888888"></path></svg>