<?xml version="1.0" standalone="no"?><!DOCTYPE svg PUBLIC "-//W3C//DTD SVG 1.1//EN" "http://www.w3.org/Graphics/SVG/1.1/DTD/svg11.dtd"><svg t="1561358767217" class="icon" viewBox="0 0 1024 1024" version="1.1" xmlns="http://www.w3.org/2000/svg" p-id="3391" xmlns:xlink="http://www.w3.org/1999/xlink" width="64" height="64"><defs><style type="text/css"></style></defs><path d="M512 672c160 0 288-128 288-288s-128-288-288-288-288 128-288 288 128 288 288 288z m0-512c121.6 0 224 102.4 224 224S633.6 608 512 608 288 505.6 288 384 390.4 160 512 160z" p-id="3392" fill="#888888"></path><path d="M800 761.6c-172.8-121.6-409.6-121.6-582.4 0-25.6 19.2-32 51.2-25.6 83.2 12.8 32 38.4 51.2 70.4 51.2h492.8c32 0 57.6-19.2 70.4-51.2 12.8-32 6.4-64-25.6-83.2z m-38.4 70.4H262.4c-6.4 0-6.4-6.4-6.4-6.4v-6.4c76.8-51.2 160-76.8 256-76.8s179.2 25.6 256 76.8c0 0 6.4 6.4 0 6.4 0 0 0 6.4-6.4 6.4z" p-id="3393" fill="#888888"></path></svg>